<svg width="300" height="300" viewBox="0 0 300 300" fill="none" xmlns="http://www.w3.org/2000/svg">
<rect width="300" height="300" fill="#FFFF00"/>
<rect width="300" height="300" fill="url(#paint0_linear)"/>
<path d="M59.091 76C62.1383 76 63.662 77.2444 63.662 79.7333C63.662 80.5077 63.4958 81.4756 63.1634 82.637L61.1687 89.357C60.5593 91.4035 59.8113 92.8415 58.9248 93.6711C58.0383 94.5007 56.7639 94.9156 55.1017 94.9156C53.7166 94.9156 52.6361 94.556 51.8605 93.837C51.1402 93.118 50.4476 91.9842 49.7827 90.4356L48.3698 87.0341C47.9266 85.9832 47.4556 85.2642 46.957 84.877C46.4583 84.4899 45.6826 84.2963 44.6299 84.2963H42.7184L32.1635 121.381C31.9972 122.1 31.9141 122.736 31.9141 123.289C31.9141 123.953 31.9972 124.506 32.1635 124.948C32.3851 125.391 32.6898 125.861 33.0777 126.359C33.5763 127.133 33.8256 127.769 33.8256 128.267C33.8256 128.377 33.7702 128.654 33.6594 129.096C33.3824 129.815 32.8283 130.341 31.9972 130.673C31.2215 131.004 30.0857 131.17 28.5897 131.17H9.05896C7.89542 131.17 6.98121 130.977 6.31634 130.59C5.70687 130.202 5.40213 129.649 5.40213 128.93C5.40213 128.599 5.48524 128.267 5.65146 127.935C5.87308 127.437 6.12241 127.078 6.39945 126.856C6.73189 126.58 7.20284 126.248 7.81231 125.861C8.64341 125.363 9.33599 124.81 9.89005 124.201C10.4441 123.593 10.9151 122.653 11.3029 121.381L21.7747 84.2963H19.8632C18.6443 84.2963 17.647 84.4899 16.8713 84.877C16.0956 85.2642 15.2645 85.9832 14.378 87.0341L11.6354 90.4356C10.361 91.9289 9.11436 93.0627 7.89542 93.837C6.73188 94.556 5.45754 94.9156 4.07238 94.9156C2.79803 94.9156 1.80071 94.5837 1.08043 93.92C0.360142 93.2563 0 92.3437 0 91.1822C0 90.6291 0.0831096 90.0207 0.249329 89.357L2.41018 81.8074C2.85343 80.2588 3.35209 79.0973 3.90616 78.323C4.46022 77.4933 5.23591 76.9126 6.23323 76.5807C7.28595 76.1936 8.75422 76 10.638 76H59.091Z" fill="black"/>
<path d="M92.4836 76C93.6471 76 94.5336 76.1936 95.1431 76.5807C95.8079 76.9126 96.1404 77.4104 96.1404 78.0741C96.1404 78.3506 96.0573 78.7101 95.891 79.1526C95.7248 79.5398 95.4755 79.8993 95.1431 80.2311C94.866 80.5077 94.589 80.7289 94.312 80.8948C94.0903 81.0054 93.9241 81.116 93.8133 81.2267C92.9268 81.7244 92.2065 82.2775 91.6525 82.8859C91.0984 83.4943 90.6274 84.4346 90.2396 85.7067L80.1833 121.464C79.9617 122.183 79.8509 122.874 79.8509 123.538C79.8509 124.201 79.934 124.755 80.1002 125.197C80.3218 125.64 80.6266 126.11 81.0144 126.607C81.5131 127.326 81.7624 127.907 81.7624 128.35C81.7624 128.46 81.707 128.737 81.5962 129.179C81.3746 129.954 80.8759 130.507 80.1002 130.839C79.3245 131.115 78.161 131.253 76.6096 131.253H57.0788C55.9153 131.253 55.0288 131.06 54.4193 130.673C53.7544 130.285 53.422 129.76 53.422 129.096C53.422 128.764 53.5051 128.405 53.6713 128.018C53.893 127.409 54.2531 126.939 54.7518 126.607C55.2504 126.276 55.5551 126.082 55.666 126.027C56.5525 125.474 57.2727 124.92 57.8268 124.367C58.3809 123.759 58.8518 122.791 59.2397 121.464L69.3791 85.7067C69.6007 84.9877 69.7115 84.2963 69.7115 83.6326C69.7115 83.0242 69.6007 82.5264 69.3791 82.1393C69.2128 81.6968 68.9635 81.199 68.6311 80.6459C68.1324 79.9269 67.8831 79.3462 67.8831 78.9037C67.8831 78.7378 67.9385 78.4336 68.0493 77.9911C68.2709 77.2721 68.7419 76.7743 69.4622 76.4978C70.2379 76.1659 71.4014 76 72.9528 76H92.4836Z" fill="black"/>
<path d="M180.96 76C182.123 76 183.01 76.1936 183.619 76.5807C184.284 76.9126 184.616 77.4104 184.616 78.0741C184.616 78.3506 184.533 78.7101 184.367 79.1526C184.201 79.6504 183.952 80.0375 183.619 80.3141C183.342 80.5353 182.899 80.8395 182.289 81.2267C181.403 81.7244 180.683 82.2775 180.129 82.8859C179.63 83.4943 179.187 84.4346 178.799 85.7067L168.659 121.381C168.438 122.1 168.327 122.791 168.327 123.455C168.327 124.063 168.41 124.589 168.576 125.031C168.798 125.418 169.075 125.888 169.407 126.441C169.629 126.718 169.823 127.022 169.989 127.354C170.155 127.631 170.239 127.935 170.239 128.267C170.239 128.377 170.183 128.654 170.072 129.096C169.851 129.815 169.324 130.341 168.493 130.673C167.718 131.004 166.582 131.17 165.086 131.17H145.555C144.391 131.17 143.477 130.977 142.812 130.59C142.203 130.202 141.898 129.677 141.898 129.013C141.898 128.681 141.981 128.322 142.147 127.935C142.314 127.548 142.535 127.216 142.812 126.939C143.145 126.607 143.422 126.386 143.643 126.276C143.92 126.11 144.114 125.971 144.225 125.861C145.112 125.363 145.832 124.81 146.386 124.201C146.94 123.593 147.411 122.653 147.799 121.381L154.115 98.9807L132.59 125.612C130.817 127.769 129.376 129.262 128.268 130.092C127.215 130.866 125.996 131.253 124.611 131.253C123.282 131.253 122.229 130.839 121.453 130.009C120.733 129.124 120.068 127.658 119.458 125.612L111.646 99.9763L105.496 121.464C105.274 122.183 105.164 122.874 105.164 123.538C105.164 124.201 105.247 124.755 105.413 125.197C105.635 125.64 105.939 126.11 106.327 126.607C106.826 127.326 107.075 127.907 107.075 128.35C107.075 128.46 107.02 128.737 106.909 129.179C106.687 129.954 106.189 130.507 105.413 130.839C104.637 131.115 103.474 131.253 101.922 131.253H95.0242C93.8607 131.253 92.9465 131.06 92.2816 130.673C91.6721 130.285 91.3674 129.76 91.3674 129.096C91.3674 128.764 91.4505 128.405 91.6167 128.018C91.8384 127.409 92.1985 126.939 92.6972 126.607C93.1958 126.276 93.5006 126.082 93.6114 126.027C94.4979 125.474 95.2182 124.92 95.7722 124.367C96.3263 123.759 96.7972 122.791 97.1851 121.464L107.324 85.6237L105.995 81.2267C105.718 80.397 105.579 79.5951 105.579 78.8207C105.579 77.8252 105.884 77.1062 106.493 76.6637C107.158 76.2212 108.156 76 109.485 76H122.367C124.03 76 125.248 76.3595 126.024 77.0785C126.855 77.7975 127.52 79.042 128.019 80.8118L136.33 108.356L158.852 80.397C160.293 78.6272 161.706 77.4657 163.091 76.9126C164.476 76.3042 166.305 76 168.576 76H180.96Z" fill="black"/>
<path d="M234.518 76C236.568 76 238.147 76.4425 239.255 77.3274C240.419 78.2123 241.001 79.4291 241.001 80.9778C241.001 81.7521 240.89 82.4988 240.668 83.2178L238.507 90.9333C238.119 92.4267 237.538 93.4775 236.762 94.0859C236.042 94.639 234.989 94.9156 233.604 94.9156C232.274 94.9156 231.221 94.639 230.446 94.0859C229.725 93.4775 229.171 92.5096 228.783 91.1822L227.454 86.4533C227.177 85.4578 226.844 84.7941 226.456 84.4622C226.069 84.1304 225.321 83.9644 224.212 83.9644H215.486L211.33 98.7319H214.987C215.375 98.7319 215.901 98.4553 216.566 97.9022L219.392 95.4133C220.223 94.6943 220.943 94.1689 221.553 93.837C222.162 93.5052 222.91 93.3393 223.797 93.3393C224.794 93.3393 225.598 93.6158 226.207 94.1689C226.872 94.6667 227.204 95.3304 227.204 96.16C227.204 96.3812 227.149 96.7131 227.038 97.1556L223.631 108.687C223.298 109.904 222.716 110.817 221.885 111.425C221.11 111.978 220.251 112.255 219.309 112.255C217.758 112.255 216.594 111.453 215.818 109.849L214.405 106.945C214.018 106.116 213.408 105.701 212.577 105.701H209.336L204.432 123.289H211.746C212.799 123.289 213.713 123.095 214.489 122.708C215.32 122.266 216.206 121.519 217.148 120.468L222.135 114.993C223.021 114.052 223.852 113.389 224.628 113.001C225.459 112.559 226.456 112.338 227.62 112.338C228.839 112.338 229.836 112.614 230.612 113.167C231.388 113.72 231.775 114.55 231.775 115.656C231.775 116.099 231.692 116.624 231.526 117.233L229.116 125.612C228.506 127.714 227.62 129.179 226.456 130.009C225.293 130.839 223.603 131.253 221.387 131.253H181.743C180.58 131.253 179.693 131.06 179.084 130.673C178.419 130.285 178.087 129.76 178.087 129.096C178.087 128.764 178.17 128.405 178.336 128.018C178.557 127.409 178.918 126.939 179.416 126.607C179.915 126.276 180.22 126.082 180.33 126.027C181.217 125.474 181.937 124.92 182.491 124.367C183.045 123.759 183.516 122.791 183.904 121.464L194.127 85.7067C194.348 84.9877 194.459 84.3239 194.459 83.7156C194.459 83.0518 194.348 82.4988 194.127 82.0563C193.96 81.6138 193.683 81.1437 193.296 80.6459C192.797 79.9269 192.548 79.3462 192.548 78.9037C192.548 78.7378 192.603 78.4336 192.714 77.9911C192.935 77.2721 193.434 76.7743 194.21 76.4978C194.986 76.1659 196.121 76 197.617 76H234.518Z" fill="black"/>
<path d="M299.501 92.8415C298.615 96.0494 296.953 98.5659 294.515 100.391C292.077 102.161 289.002 103.267 285.29 103.71C287.949 103.931 289.944 104.705 291.273 106.033C292.603 107.36 293.268 109.102 293.268 111.259C293.268 112.089 293.13 113.112 292.853 114.329L291.938 118.394C291.828 118.947 291.772 119.334 291.772 119.556C291.772 120.275 291.938 120.828 292.271 121.215C292.603 121.547 293.074 121.713 293.684 121.713C294.847 121.713 295.678 121.879 296.177 122.21C296.731 122.542 296.925 123.151 296.759 124.036C296.537 125.308 295.872 126.552 294.764 127.769C293.656 128.986 292.077 130.009 290.027 130.839C288.032 131.613 285.594 132 282.713 132C279.056 132 276.148 131.198 273.987 129.594C271.826 127.935 270.745 125.584 270.745 122.542C270.745 121.381 270.912 120.136 271.244 118.809L272.574 113.499C272.795 112.78 272.906 112.034 272.906 111.259C272.906 109.987 272.463 109.075 271.576 108.521C270.745 107.968 269.388 107.692 267.504 107.692H264.346L260.523 121.464C260.412 121.796 260.357 122.21 260.357 122.708C260.357 123.482 260.551 124.146 260.938 124.699C261.326 125.252 261.853 125.833 262.518 126.441C263.016 126.829 263.404 127.216 263.681 127.603C263.958 127.935 264.097 128.294 264.097 128.681C264.097 129.622 263.653 130.285 262.767 130.673C261.88 131.06 260.578 131.253 258.861 131.253H238C236.56 131.253 235.479 131.004 234.759 130.507C234.039 129.954 233.789 129.207 234.011 128.267C234.122 127.769 234.343 127.382 234.676 127.105C234.953 126.773 235.396 126.414 236.006 126.027C236.947 125.474 237.695 124.893 238.25 124.284C238.804 123.676 239.247 122.736 239.579 121.464L249.719 85.7067C249.94 84.9877 250.051 84.2963 250.051 83.6326C250.051 83.0242 249.94 82.5264 249.719 82.1393C249.552 81.6968 249.303 81.199 248.971 80.6459C248.472 79.9269 248.223 79.3462 248.223 78.9037C248.223 78.7378 248.278 78.4336 248.389 77.9911C248.611 77.2721 249.081 76.7743 249.802 76.4978C250.577 76.1659 251.741 76 253.292 76H281.134C284.957 76 288.282 76.5807 291.107 77.7422C293.988 78.9037 296.177 80.5077 297.673 82.5541C299.224 84.5452 300 86.8128 300 89.357C300 90.5185 299.834 91.68 299.501 92.8415ZM278.225 92.0119C278.502 90.7398 278.641 89.7719 278.641 89.1081C278.641 86.1768 277.034 84.7111 273.82 84.7111H270.33L266.673 99.3956H270.164C272.324 99.3956 274.014 98.8701 275.233 97.8193C276.508 96.7684 277.505 94.8326 278.225 92.0119Z" fill="black"/>
<defs>
<linearGradient id="paint0_linear" x1="300" y1="300" x2="0" y2="0" gradientUnits="userSpaceOnUse">
<stop offset="0.270933" stop-color="white"/>
<stop offset="0.271033" stop-color="white" stop-opacity="0"/>
</linearGradient>
</defs>
</svg>
