<svg width="300" height="300" fill="none" xmlns="http://www.w3.org/2000/svg"><path fill="#FF0" d="M0 0h300v300H0z"/><path fill="url('#paint0_linear')" d="M0 0h300v300H0z"/><path d="M59.091 76c3.047 0 4.571 1.244 4.571 3.733 0 .775-.166 1.743-.499 2.904l-1.994 6.72c-.61 2.046-1.358 3.484-2.244 4.314-.887.83-2.161 1.245-3.823 1.245-1.385 0-2.466-.36-3.241-1.079-.72-.719-1.413-1.853-2.078-3.401l-1.413-3.402c-.443-1.05-.914-1.77-1.413-2.157s-1.274-.58-2.327-.58h-1.912L32.163 121.38c-.166.719-.249 1.355-.249 1.908 0 .664.083 1.217.25 1.659.221.443.526.913.914 1.411.498.774.748 1.41.748 1.908 0 .11-.056.387-.167.829-.277.719-.83 1.245-1.662 1.577-.776.331-1.911.497-3.407.497H9.059c-1.164 0-2.078-.193-2.743-.58-.61-.388-.914-.941-.914-1.66 0-.331.083-.663.25-.995.221-.498.47-.857.747-1.079.333-.276.804-.608 1.413-.995.831-.498 1.524-1.051 2.078-1.66.554-.608 1.025-1.548 1.413-2.82l10.472-37.085h-1.912c-1.219 0-2.216.194-2.992.581-.775.387-1.606 1.106-2.493 2.157l-2.743 3.402c-1.274 1.493-2.52 2.627-3.74 3.401a7.134 7.134 0 0 1-3.823 1.079c-1.274 0-2.271-.332-2.992-.996C.36 93.256 0 92.344 0 91.182c0-.553.083-1.161.25-1.825l2.16-7.55c.443-1.548.942-2.71 1.496-3.484.554-.83 1.33-1.41 2.327-1.742C7.286 76.194 8.754 76 10.638 76h48.453ZM92.484 76c1.163 0 2.05.194 2.66.58.664.333.996.83.996 1.494 0 .277-.083.636-.249 1.079a3.444 3.444 0 0 1-.748 1.078 4.368 4.368 0 0 1-.831.664 1.93 1.93 0 0 0-.499.332c-.886.497-1.606 1.05-2.16 1.659-.555.608-1.026 1.549-1.413 2.82l-10.057 35.758a7.032 7.032 0 0 0-.332 2.074c0 .663.083 1.217.25 1.659.22.443.526.913.913 1.41.5.719.748 1.3.748 1.743 0 .11-.055.387-.166.829-.221.775-.72 1.328-1.496 1.66-.775.276-1.939.414-3.49.414H57.079c-1.164 0-2.05-.193-2.66-.58-.665-.388-.997-.913-.997-1.577 0-.332.083-.691.25-1.078.221-.609.581-1.079 1.08-1.411.498-.331.803-.525.914-.58.887-.553 1.607-1.107 2.16-1.66.555-.608 1.026-1.576 1.414-2.903l10.14-35.757c.22-.72.332-1.41.332-2.074 0-.609-.111-1.107-.333-1.494a9.357 9.357 0 0 0-.748-1.493c-.499-.72-.748-1.3-.748-1.742 0-.166.056-.47.166-.913.222-.719.693-1.217 1.413-1.493.776-.332 1.94-.498 3.49-.498h19.532ZM180.96 76c1.163 0 2.05.194 2.659.58.665.333.997.83.997 1.494 0 .277-.083.636-.249 1.079-.166.497-.415.884-.748 1.161-.277.221-.72.526-1.33.913-.886.497-1.606 1.05-2.16 1.659-.499.608-.942 1.549-1.33 2.82l-10.14 35.675a7.05 7.05 0 0 0-.332 2.074c0 .608.083 1.134.249 1.576.222.387.499.857.831 1.41.222.277.416.581.582.913.166.277.25.581.25.913 0 .11-.056.387-.167.829-.221.719-.748 1.245-1.579 1.577-.775.331-1.911.497-3.407.497h-19.531c-1.164 0-2.078-.193-2.743-.58-.609-.388-.914-.913-.914-1.577 0-.332.083-.691.249-1.078.167-.387.388-.719.665-.996.333-.332.61-.553.831-.663.277-.166.471-.305.582-.415.887-.498 1.607-1.051 2.161-1.66.554-.608 1.025-1.548 1.413-2.82l6.316-22.4-21.525 26.631c-1.773 2.157-3.214 3.65-4.322 4.48-1.053.774-2.272 1.161-3.657 1.161-1.329 0-2.382-.414-3.158-1.244-.72-.885-1.385-2.351-1.995-4.397l-7.812-25.636-6.15 21.488a7.018 7.018 0 0 0-.332 2.074c0 .663.083 1.217.249 1.659.222.443.526.913.914 1.41.499.719.748 1.3.748 1.743 0 .11-.055.387-.166.829-.222.775-.72 1.328-1.496 1.66-.776.276-1.939.414-3.491.414h-6.898c-1.163 0-2.078-.193-2.742-.58-.61-.388-.915-.913-.915-1.577 0-.332.084-.691.25-1.078.221-.609.581-1.079 1.08-1.411.499-.331.804-.525.914-.58.887-.553 1.607-1.107 2.161-1.66.554-.608 1.025-1.576 1.413-2.903l10.139-35.84-1.329-4.397a7.583 7.583 0 0 1-.416-2.406c0-.996.305-1.715.914-2.157.665-.443 1.663-.664 2.992-.664h12.882c1.663 0 2.881.36 3.657 1.079.831.719 1.496 1.963 1.995 3.733l8.311 27.544 22.522-27.959c1.441-1.77 2.854-2.931 4.239-3.484 1.385-.609 3.214-.913 5.485-.913h12.384ZM234.518 76c2.05 0 3.629.442 4.737 1.327 1.164.885 1.746 2.102 1.746 3.65a7.55 7.55 0 0 1-.333 2.24l-2.161 7.716c-.388 1.494-.969 2.544-1.745 3.153-.72.553-1.773.83-3.158.83-1.33 0-2.383-.277-3.158-.83-.721-.608-1.275-1.576-1.663-2.904l-1.329-4.729c-.277-.995-.61-1.659-.998-1.99-.387-.333-1.135-.499-2.244-.499h-8.726l-4.156 14.768h3.657c.388 0 .914-.277 1.579-.83l2.826-2.489c.831-.719 1.551-1.244 2.161-1.576.609-.332 1.357-.498 2.244-.498.997 0 1.801.277 2.41.83.665.498.997 1.161.997 1.991 0 .221-.055.553-.166.996l-3.407 11.531c-.333 1.217-.915 2.13-1.746 2.738a4.336 4.336 0 0 1-2.576.83c-1.551 0-2.715-.802-3.491-2.406l-1.413-2.904c-.387-.829-.997-1.244-1.828-1.244h-3.241l-4.904 17.588h7.314c1.053 0 1.967-.194 2.743-.581.831-.442 1.717-1.189 2.659-2.24l4.987-5.475c.886-.941 1.717-1.604 2.493-1.992.831-.442 1.828-.663 2.992-.663 1.219 0 2.216.276 2.992.829.776.553 1.163 1.383 1.163 2.489 0 .443-.083.968-.249 1.577l-2.41 8.379c-.61 2.102-1.496 3.567-2.66 4.397-1.163.83-2.853 1.244-5.069 1.244h-39.644c-1.163 0-2.05-.193-2.659-.58-.665-.388-.997-.913-.997-1.577 0-.332.083-.691.249-1.078.221-.609.582-1.079 1.08-1.411.499-.331.804-.525.914-.58.887-.553 1.607-1.107 2.161-1.66.554-.608 1.025-1.576 1.413-2.903l10.223-35.757c.221-.72.332-1.383.332-1.991 0-.664-.111-1.217-.332-1.66-.167-.442-.444-.912-.831-1.41-.499-.72-.748-1.3-.748-1.742 0-.166.055-.47.166-.913.221-.719.72-1.217 1.496-1.493.776-.332 1.911-.498 3.407-.498h36.901ZM299.501 92.841c-.886 3.208-2.548 5.725-4.986 7.55-2.438 1.77-5.513 2.876-9.225 3.319 2.659.221 4.654.995 5.983 2.323 1.33 1.327 1.995 3.069 1.995 5.226 0 .83-.138 1.853-.415 3.07l-.915 4.065c-.11.553-.166.94-.166 1.162 0 .719.166 1.272.499 1.659.332.332.803.498 1.413.498 1.163 0 1.994.166 2.493.497.554.332.748.941.582 1.826-.222 1.272-.887 2.516-1.995 3.733s-2.687 2.24-4.737 3.07c-1.995.774-4.433 1.161-7.314 1.161-3.657 0-6.565-.802-8.726-2.406-2.161-1.659-3.242-4.01-3.242-7.052 0-1.161.167-2.406.499-3.733l1.33-5.31a7.578 7.578 0 0 0 .332-2.24c0-1.272-.443-2.184-1.33-2.738-.831-.553-2.188-.829-4.072-.829h-3.158l-3.823 13.772c-.111.332-.166.746-.166 1.244 0 .774.194 1.438.581 1.991.388.553.915 1.134 1.58 1.742.498.388.886.775 1.163 1.162.277.332.416.691.416 1.078 0 .941-.444 1.604-1.33 1.992-.887.387-2.189.58-3.906.58H238c-1.44 0-2.521-.249-3.241-.746-.72-.553-.97-1.3-.748-2.24.111-.498.332-.885.665-1.162.277-.332.72-.691 1.33-1.078.941-.553 1.689-1.134 2.244-1.743.554-.608.997-1.548 1.329-2.82l10.14-35.757c.221-.72.332-1.41.332-2.074 0-.609-.111-1.107-.332-1.494a9.45 9.45 0 0 0-.748-1.493c-.499-.72-.748-1.3-.748-1.742 0-.166.055-.47.166-.913.222-.719.692-1.217 1.413-1.493.775-.332 1.939-.498 3.49-.498h27.842c3.823 0 7.148.58 9.973 1.742 2.881 1.162 5.07 2.766 6.566 4.812 1.551 1.991 2.327 4.259 2.327 6.803a12.59 12.59 0 0 1-.499 3.484Zm-21.276-.83c.277-1.271.416-2.24.416-2.903 0-2.931-1.607-4.397-4.821-4.397h-3.49l-3.657 14.685h3.491c2.16 0 3.85-.526 5.069-1.577 1.275-1.05 2.272-2.986 2.992-5.807Z" fill="#000"/><defs><linearGradient id="paint0_linear" x1="300" y1="300" x2="0" y2="0" gradientUnits="userSpaceOnUse"><stop offset=".271" stop-color="#fff"/><stop offset=".271" stop-color="#fff" stop-opacity="0"/></linearGradient></defs></svg>